<svg width="40" height="40" viewBox="0 0 40 40" fill="none" xmlns="http://www.w3.org/2000/svg">
<path d="M14.702 28.838C12.945 28.838 11.648 28.807 10.454 28.777C9.43999 28.753 8.49999 28.73 7.41099 28.73C5.70188 28.7282 4.06329 28.0485 2.85467 26.84C1.64606 25.6316 0.966109 23.9931 0.963991 22.284C0.959329 21.2348 1.21295 20.2007 1.70248 19.2727C2.19202 18.3447 2.90241 17.5515 3.77099 16.963C3.62613 16.2596 3.55342 15.5432 3.55399 14.825C3.55399 8.98301 8.30699 4.23001 14.15 4.23001C18.062 4.23001 21.645 6.39401 23.482 9.80401C24.0803 9.19086 24.7957 8.70416 25.5857 8.3728C26.3758 8.04143 27.2243 7.87215 28.081 7.87501C29.0603 7.87594 30.0265 8.09971 30.9065 8.52937C31.7865 8.95904 32.5572 9.58332 33.1602 10.355C33.7632 11.1266 34.1827 12.0253 34.387 12.9831C34.5912 13.9408 34.5748 14.9325 34.339 15.883C35.6915 16.2645 36.8824 17.0772 37.7305 18.1976C38.5787 19.318 39.0378 20.6848 39.038 22.09C39.0361 23.7994 38.3563 25.4382 37.1477 26.647C35.9391 27.8558 34.3004 28.5359 32.591 28.538C30.93 28.538 29.764 28.551 28.612 28.562C27.486 28.574 26.373 28.586 24.828 28.586C24.6954 28.586 24.5682 28.5333 24.4744 28.4396C24.3807 28.3458 24.328 28.2186 24.328 28.086C24.328 27.9534 24.3807 27.8262 24.4744 27.7325C24.5682 27.6387 24.6954 27.586 24.828 27.586C26.369 27.586 27.478 27.574 28.601 27.562C29.756 27.55 30.926 27.538 32.591 27.538C33.9477 27.5397 35.2562 27.0351 36.2604 26.1228C37.2647 25.2106 37.8923 23.9564 38.0205 22.6058C38.1487 21.2551 37.7683 19.9053 36.9536 18.8203C36.139 17.7354 34.9488 16.9936 33.616 16.74C33.5457 16.7265 33.4791 16.6981 33.4207 16.6567C33.3623 16.6153 33.3135 16.5618 33.2776 16.4999C33.2417 16.438 33.2195 16.3691 33.2124 16.2979C33.2054 16.2266 33.2138 16.1547 33.237 16.087C33.517 15.2666 33.5973 14.3913 33.4713 13.5336C33.3454 12.676 33.0167 11.8607 32.5126 11.1555C32.0085 10.4503 31.3435 9.87547 30.5728 9.47869C29.8021 9.0819 28.9478 8.87461 28.081 8.87401C27.2458 8.87162 26.4213 9.06258 25.6722 9.43193C24.9231 9.80129 24.2696 10.339 23.763 11.003C23.7105 11.0719 23.6409 11.126 23.5612 11.1598C23.4814 11.1936 23.3942 11.2061 23.3081 11.1959C23.2221 11.1857 23.1402 11.1532 23.0706 11.1017C23.0009 11.0501 22.9459 10.9813 22.911 10.902C22.152 9.21332 20.9217 7.77962 19.3678 6.77312C17.8138 5.76662 16.0024 5.2301 14.151 5.22801C8.85999 5.22801 4.55499 9.53201 4.55499 14.823C4.55499 15.583 4.64499 16.341 4.82199 17.075C4.8469 17.1782 4.83833 17.2866 4.79752 17.3846C4.75671 17.4826 4.68578 17.565 4.59499 17.62C3.78978 18.1021 3.12388 18.7854 2.66276 19.6028C2.20164 20.4202 1.96117 21.3435 1.96499 22.282C1.96684 23.726 2.54135 25.1103 3.56249 26.1312C4.58363 27.1522 5.96802 27.7264 7.41199 27.728C8.50999 27.728 9.45699 27.75 10.479 27.776C11.667 27.804 12.956 27.836 14.703 27.836C14.8359 27.8361 14.9632 27.8891 15.0571 27.9831C15.151 28.0772 15.2036 28.2046 15.2035 28.3375C15.2034 28.4704 15.1504 28.5978 15.0564 28.6916C14.9623 28.7855 14.8349 28.8381 14.702 28.838Z" fill="#222222" fill-opacity="0.6"/>
<path d="M26.35 22.456C26.2206 22.456 26.0962 22.4058 26.003 22.316L19.226 15.781L12.48 22.289C12.3844 22.381 12.2561 22.4313 12.1235 22.4288C11.9908 22.4262 11.8645 22.3711 11.7725 22.2755C11.6805 22.1799 11.6302 22.0516 11.6327 21.919C11.6353 21.7863 11.6904 21.66 11.786 21.568L18.879 14.727C18.9721 14.637 19.0964 14.5867 19.2258 14.5865C19.3552 14.5863 19.4797 14.6363 19.573 14.726L26.696 21.595C26.7681 21.6641 26.8178 21.7531 26.8388 21.8507C26.8599 21.9482 26.8512 22.0498 26.814 22.1424C26.7768 22.235 26.7127 22.3144 26.63 22.3703C26.5473 22.4262 26.4498 22.456 26.35 22.456Z" fill="#222222" fill-opacity="0.6"/>
<path d="M19.226 35.769C19.0934 35.769 18.9662 35.7163 18.8725 35.6226C18.7787 35.5288 18.726 35.4016 18.726 35.269V15.087C18.726 14.9544 18.7787 14.8272 18.8725 14.7335C18.9662 14.6397 19.0934 14.587 19.226 14.587C19.3586 14.587 19.4858 14.6397 19.5796 14.7335C19.6733 14.8272 19.726 14.9544 19.726 15.087V35.27C19.7257 35.4024 19.673 35.5294 19.5792 35.6229C19.4855 35.7165 19.3584 35.769 19.226 35.769Z" fill="#222222" fill-opacity="0.6"/>
</svg>
